<?xml version="1.0" encoding="UTF-8"?>
<svg version="1.1" xmlns="http://www.w3.org/2000/svg" width="500" height="500">
<path d="M0 0 C165 0 330 0 500 0 C500 165 500 330 500 500 C335 500 170 500 0 500 C0 335 0 170 0 0 Z " fill="#B3BC91" transform="translate(0,0)"/>
<path d="M0 0 C0 0.99 0 1.98 0 3 C-1.19882812 3.14695312 -1.19882812 3.14695312 -2.421875 3.296875 C-24.07200783 6.24454567 -40.99170737 15.00862631 -55.0625 31.5625 C-71.61963416 53.43426982 -81.92162948 79.37756456 -92.91455078 104.31323242 C-97.33697877 114.33326659 -101.88492029 124.28412923 -106.5625 134.1875 C-111.5818458 144.81816988 -116.52582402 155.4780521 -121.375 166.1875 C-126.37615088 177.23181796 -131.4087545 188.26073015 -136.47970581 199.27319336 C-141.98505837 211.23070554 -147.47639216 223.19443046 -152.90621948 235.1864624 C-153.49949992 236.49640611 -154.09348711 237.80603001 -154.68826294 239.11529541 C-161.5861528 254.14099103 -161.5861528 254.14099103 -166 270 C-167.87649536 269.72206116 -167.87649536 269.72206116 -170 269 C-171.10812378 267.46263123 -171.10812378 267.46263123 -171.97607422 265.44702148 C-172.31144196 264.6883931 -172.64680969 263.92976471 -172.99234009 263.14814758 C-173.34291473 262.31421982 -173.69348938 261.48029205 -174.0546875 260.62109375 C-174.62272598 259.32023079 -174.62272598 259.32023079 -175.20223999 257.99308777 C-176.44095175 255.14724625 -177.65829716 252.29281245 -178.875 249.4375 C-179.71976363 247.48106137 -180.56579979 245.52517173 -181.41308594 243.56982422 C-182.69885665 240.60027113 -183.98280197 237.63001115 -185.26037598 234.65692139 C-187.91617974 228.47776149 -190.6286328 222.32804762 -193.3984375 216.19921875 C-194.37525312 214.02450285 -195.35111091 211.84935963 -196.32672119 209.67410278 C-196.93929599 208.314569 -197.55592076 206.95685237 -198.17669678 205.6010437 C-199.03119817 203.73148397 -199.86892352 201.85524818 -200.703125 199.9765625 C-201.17395508 198.93580566 -201.64478516 197.89504883 -202.12988281 196.82275391 C-204.00691217 190.73346843 -200.53274599 185.25886716 -198.0625 179.75 C-197.70220703 178.92242187 -197.34191406 178.09484375 -196.97070312 177.2421875 C-196.62072266 176.45585937 -196.27074219 175.66953125 -195.91015625 174.859375 C-195.59183838 174.14233398 -195.27352051 173.42529297 -194.94555664 172.68652344 C-194 171 -194 171 -192 170 C-188.73435623 178.15996174 -185.47424707 186.32210597 -182.22121429 194.48710346 C-180.71058457 198.27822369 -179.19804764 202.06855964 -177.68115234 205.85717773 C-176.21778628 209.51230333 -174.75943015 213.16939057 -173.30455017 216.82790184 C-172.74814935 218.22448187 -172.18993626 219.62034128 -171.62989807 221.01546669 C-170.84678625 222.96718398 -170.07011294 224.92134651 -169.29492188 226.8762207 C-168.85079956 227.9887471 -168.40667725 229.1012735 -167.94909668 230.24751282 C-167 233 -167 233 -167 236 C-166.34 236 -165.68 236 -165 236 C-164.90517334 235.34789551 -164.81034668 234.69579102 -164.71264648 234.02392578 C-163.76851932 230.01777333 -162.20738584 226.39718647 -160.59765625 222.6171875 C-160.24875839 221.78740387 -159.89986053 220.95762024 -159.54039001 220.10269165 C-158.38536234 217.358307 -157.22387795 214.61670263 -156.0625 211.875 C-155.24625148 209.93835889 -154.43050442 208.00150635 -153.61523438 206.06445312 C-151.92007767 202.03791315 -150.22275997 198.0122944 -148.52392578 193.98730469 C-145.03431212 185.71499802 -141.57094383 177.43173923 -138.10760498 169.14840698 C-136.61630919 165.5825525 -135.1233788 162.01738332 -133.63049316 158.45219421 C-130.23832933 150.3511472 -126.84990191 142.24854985 -123.46484375 134.14453125 C-119.73325974 125.21171329 -115.99302817 116.28255147 -112.24658203 107.35595703 C-110.72402834 103.72784833 -109.20448406 100.09849853 -107.68701172 96.46826172 C-105.78629276 91.92251832 -103.87791148 87.38005774 -101.96438599 82.83969116 C-101.25312032 81.14886859 -100.54425021 79.45703573 -99.83810425 77.7640686 C-86.91784245 46.80520141 -70.15628639 18.68575631 -37.828125 5.390625 C-25.29449738 0.6759029 -13.31211623 -0.59979497 0 0 Z " fill="#030302" transform="translate(435,100)"/>
<path d="M0 0 C0 0.66 0 1.32 0 2 C-0.70382812 2.06316406 -1.40765625 2.12632812 -2.1328125 2.19140625 C-15.7503901 3.88027031 -27.84338261 10.10956287 -36.31640625 20.96875 C-44.14747078 31.77738791 -49.4949969 43.90348004 -55 56 C-55.56355543 57.23286018 -56.12736517 58.46560412 -56.69140625 59.69824219 C-59.8249102 66.54986065 -62.94122804 73.40915144 -66.046875 80.2734375 C-69.65868225 88.25619312 -73.29496052 96.22759193 -76.94039917 104.19503784 C-77.93639586 106.37258601 -78.93133663 108.55061387 -79.92602539 110.72875977 C-83.02436941 117.51103734 -86.13028344 124.28959188 -89.26045227 131.05725098 C-90.70502479 134.18187403 -92.1454096 137.30841945 -93.58547974 140.43511963 C-94.26331242 141.90381349 -94.94312994 143.37159341 -95.62521362 144.83831787 C-100.22765513 154.73666603 -104.30329934 164.72824507 -108 175 C-111 174 -111 174 -112.61547852 170.95703125 C-113.21433068 169.58027171 -113.80119731 168.19826445 -114.37890625 166.8125 C-114.7028688 166.06014572 -115.02683136 165.30779144 -115.36061096 164.53263855 C-116.43767224 162.02582032 -117.49977162 159.51292394 -118.5625 157 C-119.31827056 155.23555743 -120.07528992 153.47164928 -120.83349609 151.70825195 C-122.42380346 148.00841561 -124.00972938 144.30674452 -125.59326172 140.60400391 C-129.37774302 131.77252871 -133.25345676 122.98105963 -137.125 114.1875 C-138.62139787 110.78659207 -140.11737406 107.38549878 -141.61328125 103.984375 C-141.97831757 103.15481796 -142.34335388 102.32526093 -142.7194519 101.4705658 C-144.90269216 96.50620168 -147.07515878 91.53729478 -149.23828125 86.56413269 C-150.6037838 83.4264204 -151.97400347 80.29078052 -153.34490967 77.15542603 C-153.97985026 75.70000506 -154.61261515 74.24363258 -155.24298096 72.78622437 C-160.87601037 58.1649927 -160.87601037 58.1649927 -172 48 C-175.73225344 47.20317197 -175.73225344 47.20317197 -179 47 C-179 46.34 -179 45.68 -179 45 C-165.47 45 -151.94 45 -138 45 C-138 45.66 -138 46.32 -138 47 C-139.134375 47.28875 -140.26875 47.5775 -141.4375 47.875 C-142.613125 48.24625 -143.78875 48.6175 -145 49 C-146.74742845 52.49485691 -146.32569032 55.92352638 -145.21537781 59.59333801 C-144.8448378 60.46592758 -144.47429779 61.33851715 -144.0925293 62.23754883 C-143.66954056 63.25193527 -143.24655182 64.26632172 -142.81074524 65.31144714 C-142.3408165 66.4113649 -141.87088776 67.51128265 -141.38671875 68.64453125 C-140.63452584 70.44675572 -139.88240361 72.24901101 -139.13271236 74.05227757 C-138.59844509 75.33716524 -138.06304049 76.62158051 -137.52658176 77.90555477 C-134.26042691 85.73549067 -131.14292381 93.62402886 -128.01953125 101.51171875 C-127.42401648 103.01291472 -126.82838432 104.51406413 -126.2326355 106.01516724 C-124.73016076 109.80172869 -123.22915654 113.58887116 -121.72851562 117.37615967 C-120.17345614 121.29997015 -118.61692793 125.22319795 -117.06054688 129.14648438 C-114.03897901 136.76377402 -111.01895476 144.38167433 -108 152 C-104.09334176 143.72792836 -100.24137777 135.46054218 -96.79296875 126.984375 C-96.42986603 126.10079315 -96.06676331 125.2172113 -95.69265747 124.30685425 C-94.92014595 122.426305 -94.14912979 120.54514084 -93.37954712 118.66339111 C-91.31107984 113.60800857 -89.22833236 108.55850144 -87.1484375 103.5078125 C-86.28873692 101.41829429 -85.4290364 99.32877607 -84.56933594 97.23925781 C-80.88102048 88.27952549 -77.18192302 79.32437698 -73.45767212 70.3795166 C-72.70677925 68.57337162 -71.95798589 66.76635203 -71.21151733 64.95837402 C-49.93620915 13.44125477 -49.93620915 13.44125477 -24.94140625 2.68359375 C-16.50303107 -0.28068248 -8.83290261 -0.43981258 0 0 Z " fill="#040403" transform="translate(301,190)"/>
<path d="M0 0 C20.79 0 41.58 0 63 0 C63 0.99 63 1.98 63 3 C61.948125 3.061875 60.89625 3.12375 59.8125 3.1875 C55.33662744 4.14137448 53.87717133 5.53046987 51 9 C49.25929552 12.48140896 49.52419111 16.2072893 50.51303101 19.93295288 C51.24744124 22.02767683 52.04974534 24.08083147 52.88671875 26.13671875 C53.18560501 26.89741165 53.48449127 27.65810455 53.79243469 28.44184875 C54.74639632 30.86161873 55.71671637 33.27443689 56.6875 35.6875 C57.32072691 37.28799033 57.9528977 38.88889893 58.58398438 40.49023438 C61.27040224 47.28104028 64.00622472 54.0258224 66.95703125 60.70703125 C69.69848855 67.37262508 69.69351044 71.58759125 67.03125 78.27734375 C66.20042088 80.16978785 65.35630932 82.05644815 64.5 83.9375 C64.07074219 84.90751953 63.64148438 85.87753906 63.19921875 86.87695312 C62.14417612 89.2566604 61.07761753 91.63045153 60 94 C57.15525012 91.54037436 55.95135058 89.02841361 54.49609375 85.5859375 C54.01148682 84.4518042 53.52687988 83.3176709 53.02758789 82.14916992 C52.76962433 81.53657318 52.51166077 80.92397644 52.24588013 80.29281616 C51.42310621 78.34085191 50.59080342 76.3932158 49.75561523 74.4465332 C48.51939725 71.56475819 47.28564464 68.68194897 46.05371094 65.79833984 C42.64456594 57.82674335 39.20911137 49.8667448 35.74807739 41.9175415 C34.96343177 40.11072979 34.18218895 38.30243616 33.4045105 36.49261475 C25.78937076 17.25144648 25.78937076 17.25144648 10 5 C6.68589357 4.0653678 3.41586479 3.42153225 0 3 C0 2.01 0 1.02 0 0 Z " fill="#030302" transform="translate(160,169)"/>
<path d="M0 0 C1.21598877 0.40943848 1.21598877 0.40943848 2.45654297 0.82714844 C28.74503442 9.86459754 51.35605647 23.5172193 72 42 C71.67 42.99 71.34 43.98 71 45 C67.21164409 44.43089721 65.55359119 42.85169016 62.875 40.1875 C44.97310899 23.69685295 21.9448673 12.52554825 -1 5 C-1.98484375 4.67515625 -2.9696875 4.3503125 -3.984375 4.015625 C-6.31177336 3.28923952 -8.64521484 2.63117953 -11 2 C-11.83273437 1.75765625 -12.66546875 1.5153125 -13.5234375 1.265625 C-61.34292107 -11.86129206 -113.2165821 -2.97044597 -155.91796875 21.1953125 C-200.01813247 46.70817317 -231.11351611 88.22670659 -244.8125 137.125 C-248.91466788 152.76043743 -250.46298799 167.99804748 -250.28125 184.14575195 C-250.24974889 186.95993292 -250.24022045 189.77354952 -250.234375 192.58789062 C-250.19447355 201.76492158 -250.01736412 210.86856555 -249 220 C-250.32 220 -251.64 220 -253 220 C-255.57701667 210.15861402 -255.30428382 200.17538407 -255.26074219 190.08544922 C-255.25005003 187.1387868 -255.26066658 184.19273732 -255.2734375 181.24609375 C-255.28155986 171.31763164 -255.00627027 161.76361983 -253 152 C-252.74259033 150.64237549 -252.74259033 150.64237549 -252.47998047 149.25732422 C-246.21596607 117.25879687 -232.56075141 86.656285 -211 62 C-210.04048287 60.84972533 -209.08361174 59.69724011 -208.12890625 58.54296875 C-202.20767681 51.42626203 -196.14483109 44.92672952 -189 39 C-188.47631836 38.55479004 -187.95263672 38.10958008 -187.41308594 37.65087891 C-164.6907612 18.37666369 -137.83504096 3.46979789 -108.65625 -3.1640625 C-105.44624045 -3.89797494 -102.29683074 -4.74490411 -99.125 -5.625 C-67.29532539 -13.37078518 -30.8670144 -10.45767701 0 0 Z " fill="#0B0C09" transform="translate(307,59)"/>
<path d="M0 0 C14.92233186 13.56575624 23.80454604 34.59703593 31 53 C31.39227783 54.00063477 31.39227783 54.00063477 31.79248047 55.02148438 C38.10167112 71.50156322 42.14531663 90.02381306 42.16796875 107.66796875 C42.17296135 109.04206657 42.17296135 109.04206657 42.17805481 110.44392395 C42.18309779 112.37610373 42.18546395 114.30829216 42.18530273 116.24047852 C42.18748033 119.1611203 42.20563981 122.08137844 42.22460938 125.00195312 C42.25239636 134.53227706 42.16382624 143.66918895 40 153 C38.68 153 37.36 153 36 153 C36.06783691 152.28271729 36.13567383 151.56543457 36.20556641 150.82641602 C40.89727481 96.55053524 30.66161066 47.36628342 -2 3 C-1.34 2.01 -0.68 1.02 0 0 Z " fill="#0D0E0B" transform="translate(400,125)"/>
<path d="M0 0 C4.36044161 1.61497837 5.95757613 3.29421548 8.375 7.25 C9 10.8125 9 10.8125 8.375 14.25 C5.81073777 17.82442614 4.08728711 19.03376999 -0.125 20.3125 C-3.625 20.25 -3.625 20.25 -6.4375 18.5625 C-9.37435657 15.45782305 -10.37027265 13.55193978 -11.1875 9.375 C-10.45296406 5.29424476 -8.86196724 3.80744563 -5.62890625 1.33203125 C-3.625 0.25 -3.625 0.25 0 0 Z " fill="#181A14" transform="translate(346.625,395.75)"/>
<path d="M0 0 C3.55247432 0.87379409 4.94828114 2.4927342 6.9375 5.4765625 C7.76954087 8.37087611 7.81930156 10.58964531 6.9375 13.4765625 C4.9987521 16.21696276 2.93225397 17.9645912 -0.0625 19.4765625 C-3.6875 19.7265625 -3.6875 19.7265625 -7.0625 18.4765625 C-10.0625 15.8515625 -10.0625 15.8515625 -12.0625 12.4765625 C-12.21581912 8.10696746 -11.50738346 6.1101844 -9 2.5390625 C-5.70128985 0.22294686 -3.94712572 -0.28407344 0 0 Z " fill="#0B0C09" transform="translate(112.0625,362.5234375)"/>
<path d="M0 0 C3.0625 0.1875 3.0625 0.1875 5.0625 2.1875 C4.6875 4.8125 4.6875 4.8125 4.0625 7.1875 C2.7425 7.5175 1.4225 7.8475 0.0625 8.1875 C0.7225 9.5075 1.3825 10.8275 2.0625 12.1875 C3.3825 11.5275 4.7025 10.8675 6.0625 10.1875 C5.48665568 12.57314077 4.84022405 14.85432784 4.0625 17.1875 C5.0525 17.1875 6.0425 17.1875 7.0625 17.1875 C7.0625 18.1775 7.0625 19.1675 7.0625 20.1875 C2.3125 19.3125 2.3125 19.3125 0.0625 18.1875 C-0.88625 18.22875 -1.835 18.27 -2.8125 18.3125 C-5.9375 18.1875 -5.9375 18.1875 -8.3125 17 C-9.9375 15.1875 -9.9375 15.1875 -10.4375 12.6875 C-9.9375 10.1875 -9.9375 10.1875 -8.0625 8.375 C-5.9375 7.1875 -5.9375 7.1875 -3.9375 7.1875 C-3.958125 6.218125 -3.97875 5.24875 -4 4.25 C-3.91836957 0.2501087 -3.91836957 0.2501087 0 0 Z " fill="#20211A" transform="translate(210.9375,420.8125)"/>
<path d="M0 0 C1.1233244 3.28356364 1.24383906 5.38858265 -0.046875 8.625 C-1.30842681 11.11975414 -2.61360651 13.57261209 -4 16 C-3.18595703 15.44119141 -3.18595703 15.44119141 -2.35546875 14.87109375 C-1.64003906 14.39800781 -0.92460938 13.92492187 -0.1875 13.4375 C0.52019531 12.96183594 1.22789063 12.48617188 1.95703125 11.99609375 C4 11 4 11 7 12 C5.6551963 16.03441111 3.04690097 17.12667247 -0.4375 19.1875 C-1.03626953 19.55552734 -1.63503906 19.92355469 -2.25195312 20.30273438 C-6.72070675 23 -6.72070675 23 -9 23 C-9.93669174 19.39239868 -10.20704495 17.50995638 -8.78515625 14.0078125 C-8.21667969 13.05648438 -7.64820312 12.10515625 -7.0625 11.125 C-6.49660156 10.15820312 -5.93070313 9.19140625 -5.34765625 8.1953125 C-4.90292969 7.47085937 -4.45820312 6.74640625 -4 6 C-4.61488281 6.44472656 -5.22976562 6.88945312 -5.86328125 7.34765625 C-7.07564453 8.19650391 -7.07564453 8.19650391 -8.3125 9.0625 C-9.11300781 9.63097656 -9.91351563 10.19945312 -10.73828125 10.78515625 C-11.48464844 11.18605469 -12.23101562 11.58695312 -13 12 C-13.99 11.67 -14.98 11.34 -16 11 C-14.6551963 6.96558889 -12.04690097 5.87332753 -8.5625 3.8125 C-7.96373047 3.44447266 -7.36496094 3.07644531 -6.74804688 2.69726562 C-2.27929325 0 -2.27929325 0 0 0 Z " fill="#0E0F0B" transform="translate(94,334)"/>
<path d="M0 0 C0.99 0 1.98 0 3 0 C4.03251062 2.43313372 5.05119521 4.87056892 6.0625 7.3125 C6.35705078 8.00279297 6.65160156 8.69308594 6.95507812 9.40429688 C9.11328125 14.66015625 9.11328125 14.66015625 8 18 C3.77510398 17.46719784 1.45919284 16.12321801 -1.8125 13.4375 C-2.60269531 12.79683594 -3.39289063 12.15617187 -4.20703125 11.49609375 C-4.79871094 11.00238281 -5.39039063 10.50867188 -6 10 C-5.7834375 10.53109375 -5.566875 11.0621875 -5.34375 11.609375 C-4.92609375 12.66898437 -4.92609375 12.66898437 -4.5 13.75 C-4.2215625 14.44609375 -3.943125 15.1421875 -3.65625 15.859375 C-3 18 -3 18 -3 22 C-3.99 22 -4.98 22 -6 22 C-7.00419637 19.5433053 -8.00350501 17.08481647 -9 14.625 C-9.28617187 13.92632812 -9.57234375 13.22765625 -9.8671875 12.5078125 C-12 7.2265625 -12 7.2265625 -12 5 C-9.83203125 4.25390625 -9.83203125 4.25390625 -7 4 C-4.32421875 5.65234375 -4.32421875 5.65234375 -1.6875 7.9375 C-0.80449219 8.68902344 0.07851563 9.44054687 0.98828125 10.21484375 C1.65214844 10.80394531 2.31601562 11.39304687 3 12 C2.7834375 11.38511719 2.566875 10.77023437 2.34375 10.13671875 C2.0653125 9.32847656 1.786875 8.52023437 1.5 7.6875 C1.2215625 6.88699219 0.943125 6.08648437 0.65625 5.26171875 C0 3 0 3 0 0 Z " fill="#0D0E0B" transform="translate(317,410)"/>
<path d="M0 0 C5.72210596 1.86763181 11.37661751 3.85289032 17 6 C16.34 7.65 15.68 9.3 15 11 C10.38 11.66 5.76 12.32 1 13 C5.95 14.98 5.95 14.98 11 17 C11 18.32 11 19.64 11 21 C5.72 19.02 0.44 17.04 -5 15 C-5 13.35 -5 11.7 -5 10 C1.93 9.01 1.93 9.01 9 8 C5.7 6.35 2.4 4.7 -1 3 C-0.67 2.01 -0.34 1.02 0 0 Z " fill="#0C0C09" transform="translate(415,307)"/>
<path d="M0 0 C0.99 0.33 1.98 0.66 3 1 C2.33333333 3.66666667 1.66666667 6.33333333 1 9 C3.31 9.66 5.62 10.32 8 11 C8.66 9.35 9.32 7.7 10 6 C11.32 6.33 12.64 6.66 14 7 C11.36 12.28 8.72 17.56 6 23 C4.68 22.67 3.36 22.34 2 22 C2.33 21.236875 2.66 20.47375 3 19.6875 C4.17436686 17.00930865 4.17436686 17.00930865 4 14 C2.02 13.01 0.04 12.02 -2 11 C-2.66 12.98 -3.32 14.96 -4 17 C-5.32 16.67 -6.64 16.34 -8 16 C-6.42986223 10.03347646 -3.24970218 5.17090975 0 0 Z " fill="#0D0E0B" transform="translate(157,400)"/>
<path d="M0 0 C4.78775956 3.53613714 9.46451416 7.14483704 14 11 C13.67 11.99 13.34 12.98 13 14 C12.236875 13.690625 11.47375 13.38125 10.6875 13.0625 C8.81210323 12.32106407 6.91315348 11.63771783 5 11 C3.02 13.97 3.02 13.97 1 17 C1.61875 17.309375 2.2375 17.61875 2.875 17.9375 C4.25 18.625 5.625 19.3125 7 20 C6.34 21.32 5.68 22.64 5 24 C0.21224044 20.46386286 -4.46451416 16.85516296 -9 13 C-8.67 12.01 -8.34 11.02 -8 10 C-3.25 11.875 -3.25 11.875 -1 13 C-0.01 11.68 0.98 10.36 2 9 C0.6910428 5.87802522 0.6910428 5.87802522 -2 4 C-1.34 2.68 -0.68 1.36 0 0 Z " fill="#0B0C09" transform="translate(391,352)"/>
<path d="M0 0 C0.66 1.32 1.32 2.64 2 4 C-1.63 6.31 -5.26 8.62 -9 11 C-4.71 11.33 -0.42 11.66 4 12 C4.33 13.32 4.66 14.64 5 16 C2.77090129 16.02714735 0.54170633 16.04646254 -1.6875 16.0625 C-2.92886719 16.07410156 -4.17023438 16.08570313 -5.44921875 16.09765625 C-8.46235454 16.01478673 -11.08275339 15.70839449 -14 15 C-14.33 13.68 -14.66 12.36 -15 11 C-12.87657342 9.35210134 -10.7513551 7.70661212 -8.625 6.0625 C-8.02171875 5.59392578 -7.4184375 5.12535156 -6.796875 4.64257812 C-2.2265625 1.11328125 -2.2265625 1.11328125 0 0 Z " fill="#161712" transform="translate(74,286)"/>
<path d="M0 0 C1.32 0 2.64 0 4 0 C3.54543566 2.04250911 3.08617174 4.0839726 2.625 6.125 C2.36976563 7.26195312 2.11453125 8.39890625 1.8515625 9.5703125 C1.05363523 12.78398288 0.09209441 15.87566034 -1 19 C-2.65 19 -4.3 19 -6 19 C-7.17374173 16.56568361 -8.33915763 14.12795818 -9.5 11.6875 C-9.83386719 10.99720703 -10.16773438 10.30691406 -10.51171875 9.59570312 C-13 4.33984375 -13 4.33984375 -13 1 C-11.68 1 -10.36 1 -9 1 C-7.35 5.29 -5.7 9.58 -4 14 C-3.525625 11.875625 -3.05125 9.75125 -2.5625 7.5625 C-1.125 1.125 -1.125 1.125 0 0 Z " fill="#10110D" transform="translate(268,423)"/>
<path d="M0 0 C2.4375 0.4375 2.4375 0.4375 4.3125 1.5625 C5.4375 3.4375 5.4375 3.4375 5.3125 6.4375 C4.03223684 10.82697368 4.03223684 10.82697368 1.4375 12.4375 C-1.625 12.75 -1.625 12.75 -4.5625 12.4375 C-6.5625 10.4375 -6.5625 10.4375 -6.9375 7.5625 C-6.5625 4.4375 -6.5625 4.4375 -4.875 2.0625 C-2.5625 0.4375 -2.5625 0.4375 0 0 Z " fill="#AAB38A" transform="translate(110.5625,365.5625)"/>
<path d="M0 0 C3.125 0.4375 3.125 0.4375 5.5625 2.625 C7.125 5.4375 7.125 5.4375 7 8.125 C6.125 10.4375 6.125 10.4375 4.125 12.4375 C1.75 12.875 1.75 12.875 -0.875 12.4375 C-3.5132029 9.94190266 -4.74461321 8.37193864 -5.25 4.75 C-4.66783152 1.15996105 -3.52305012 0.53611632 0 0 Z " fill="#ACB48B" transform="translate(344.875,399.5625)"/>
<path d="M0 0 C0.99 0.33 1.98 0.66 3 1 C2.67 1.99 2.34 2.98 2 4 C1.34 4 0.68 4 0 4 C2.21731659 9.1737387 4.95016194 12.22015114 9 16 C8.34 17.32 7.68 18.64 7 20 C3.66666667 16.66666667 0.33333333 13.33333333 -3 10 C-4.98 10.66 -6.96 11.32 -9 12 C-9 8 -9 8 -7.28515625 6.11328125 C-6.55167969 5.51902344 -5.81820313 4.92476563 -5.0625 4.3125 C-4.33160156 3.71050781 -3.60070312 3.10851562 -2.84765625 2.48828125 C-2.23792969 1.99714844 -1.62820313 1.50601562 -1 1 C-0.67 0.67 -0.34 0.34 0 0 Z " fill="#11120D" transform="translate(370,375)"/>
<path d="M0 0 C5.08938811 1.59043379 8.87456643 4.7446951 13 8 C12.67 8.99 12.34 9.98 12 11 C10.02 10.34 8.04 9.68 6 9 C3.36 12.3 0.72 15.6 -2 19 C-2.99 18.67 -3.98 18.34 -5 18 C-3.95211676 14.76108816 -2.6420687 12.42363434 -0.4375 9.875 C2.14217763 7.19395804 2.14217763 7.19395804 3 4 C1.68 3.34 0.36 2.68 -1 2 C-0.67 1.34 -0.34 0.68 0 0 Z " fill="#0E0F0B" transform="translate(132,383)"/>
<path d="M0 0 C3.25 0.4375 3.25 0.4375 6.125 3 C8.00606825 5.5750546 8.29736913 6.7427677 8.8125 10.0625 C8.17389342 13.89413946 7.26264559 15.08387063 4.25 17.4375 C3.26 17.1075 2.27 16.7775 1.25 16.4375 C1.765625 15.90125 2.28125 15.365 2.8125 14.8125 C4.53338487 12.46278232 4.53338487 12.46278232 4.125 9.375 C2.94752504 5.42204834 1.62113383 4.18182979 -1.9375 2.25 C-2.535625 1.981875 -3.13375 1.71375 -3.75 1.4375 C-2.75 0.4375 -2.75 0.4375 0 0 Z " fill="#070806" transform="translate(346.75,396.5625)"/>
<path d="M0 0 C0.33 1.32 0.66 2.64 1 4 C-4.28 6.31 -9.56 8.62 -15 11 C-15.66 9.68 -16.32 8.36 -17 7 C-14.54379149 5.82866942 -12.08525083 4.66278278 -9.625 3.5 C-8.92632812 3.16613281 -8.22765625 2.83226562 -7.5078125 2.48828125 C-2.2265625 0 -2.2265625 0 0 0 Z " fill="#0E0E0B" transform="translate(85,316)"/>
<path d="M0 0 C6.08233706 0.67581523 12.01314152 1.73638028 18 3 C18 4.32 18 5.64 18 7 C11.7945858 6.51679152 6.00054754 5.66681876 0 4 C0 2.68 0 1.36 0 0 Z " fill="#11120E" transform="translate(420,288)"/>
<path d="M0 0 C3.91114026 0.67400718 6.87119182 2.54256033 10.25 4.5625 C11.32765625 5.20316406 12.4053125 5.84382813 13.515625 6.50390625 C14.33546875 6.99761719 15.1553125 7.49132812 16 8 C15.67 9.32 15.34 10.64 15 12 C13.08085447 11.06758496 11.16477614 10.12885525 9.25 9.1875 C8.18265625 8.66542969 7.1153125 8.14335937 6.015625 7.60546875 C3.44766758 6.2383308 1.25529217 4.82284537 -1 3 C-0.67 2.01 -0.34 1.02 0 0 Z " fill="#0E0F0B" transform="translate(401,336)"/>
<path d="M0 0 C1.32 0 2.64 0 4 0 C4.50690584 2.06081361 5.00524619 4.12373526 5.5 6.1875 C5.7784375 7.33605469 6.056875 8.48460937 6.34375 9.66796875 C6.91495385 12.56818829 7.13283779 15.06096385 7 18 C5.68 17.67 4.36 17.34 3 17 C2.49622232 14.73000175 1.99709981 12.45896997 1.5 10.1875 C1.08234375 8.29064453 1.08234375 8.29064453 0.65625 6.35546875 C0 3 0 3 0 0 Z " fill="#0C0C09" transform="translate(286,420)"/>
<path d="M0 0 C0.66 1.32 1.32 2.64 2 4 C-1.63 6.31 -5.26 8.62 -9 11 C-9 8 -9 8 -6.75 5.5 C-4.56458892 3.51326265 -2.41145588 1.69695043 0 0 Z " fill="#0F100C" transform="translate(74,286)"/>
<path d="M0 0 C1.65 0.33 3.3 0.66 5 1 C5.33 2.65 5.66 4.3 6 6 C4.02 6.99 4.02 6.99 2 8 C1.67 7.01 1.34 6.02 1 5 C1.66 5 2.32 5 3 5 C3 4.01 3 3.02 3 2 C1.68 2.33 0.36 2.66 -1 3 C-0.67 2.01 -0.34 1.02 0 0 Z " fill="#0D0E0B" transform="translate(210,421)"/>
<path d="M0 0 C0.66 0 1.32 0 2 0 C2.66 1.65 3.32 3.3 4 5 C2.35 5 0.7 5 -1 5 C-0.67 3.35 -0.34 1.7 0 0 Z " fill="#A7B088" transform="translate(206,431)"/>
</svg>
